<?xml version="1.0" standalone="no"?>
<!DOCTYPE svg PUBLIC "-//W3C//DTD SVG 20010904//EN"
 "http://www.w3.org/TR/2001/REC-SVG-20010904/DTD/svg10.dtd">
<svg version="1.0" xmlns="http://www.w3.org/2000/svg"
 width="500.000000pt" height="500.000000pt" viewBox="0 0 500.000000 500.000000"
 preserveAspectRatio="xMidYMid meet">

<g transform="translate(0.000000,500.000000) scale(0.100000,-0.100000)"
fill="#FFFFFF" stroke="none">
<path d="M250 2580 l0 -700 258 2 257 3 -252 2 -253 3 0 690 0 690 2240 0
2240 0 0 -690 0 -690 -252 -3 -253 -2 258 -3 257 -2 0 700 0 700 -2250 0
-2250 0 0 -700z"/>
<path d="M2203 2830 c-45 -18 -37 -82 13 -94 59 -15 100 55 52 88 -25 18 -33
19 -65 6z"/>
<path d="M3621 2833 c-51 -4 -53 -5 -32 -19 20 -15 21 -22 21 -238 0 -221 0
-224 -22 -239 -22 -15 -18 -16 67 -16 77 0 87 2 73 13 -16 11 -18 31 -18 143
0 115 2 132 19 147 11 10 31 16 48 14 l28 -3 3 -144 c2 -128 1 -145 -15 -157
-16 -12 -6 -13 72 -13 87 -1 89 0 68 17 -20 16 -22 27 -25 155 -3 132 -4 140
-27 158 -33 27 -110 26 -145 -2 l-26 -20 0 105 c0 95 -2 106 -17 104 -10 -1
-42 -3 -72 -5z"/>
<path d="M1080 2777 l25 -13 3 -206 2 -207 -27 -15 c-26 -14 -21 -15 82 -15
103 0 108 1 83 15 -28 15 -28 15 -28 119 0 86 3 103 14 99 13 -5 141 -203 134
-209 -2 -1 -12 -7 -23 -13 -16 -9 0 -11 78 -12 88 0 120 9 83 23 -13 5 -89
116 -164 238 l-21 35 54 66 c30 36 70 73 90 82 19 9 35 19 35 21 0 3 -37 5
-82 4 -66 0 -78 -3 -61 -11 45 -22 39 -48 -30 -131 -34 -41 -82 -77 -102 -77
-3 0 -4 44 -3 97 3 93 4 98 28 110 22 11 10 13 -85 13 -95 0 -107 -2 -85 -13z"/>
<path d="M2857 2768 c11 -13 50 -78 87 -145 63 -117 66 -125 66 -190 0 -73 -4
-85 -35 -99 -16 -7 -8 -9 33 -12 28 -2 76 -2 105 0 40 3 48 5 32 12 -32 15
-35 26 -35 119 0 84 2 91 45 177 24 49 59 105 76 124 l31 36 -73 -1 c-62 0
-69 -2 -46 -11 44 -16 44 -47 1 -138 -20 -44 -40 -80 -43 -80 -4 0 -30 44 -59
99 -53 101 -54 108 -12 124 8 3 -32 6 -89 6 l-104 1 20 -22z"/>
<path d="M1603 2654 c-49 -24 -75 -74 -80 -152 -8 -123 57 -198 161 -189 42 4
55 10 83 41 39 43 47 79 8 40 -20 -20 -33 -25 -67 -22 -52 4 -79 37 -86 107
l-5 51 97 0 c85 0 96 2 96 18 -1 29 -37 100 -58 111 -30 16 -112 13 -149 -5z
m101 -16 c9 -12 16 -39 16 -60 l0 -38 -51 0 -51 0 7 38 c8 45 30 82 50 82 7 0
21 -10 29 -22z"/>
<path d="M2135 2663 c-95 -3 -107 -5 -85 -16 16 -8 26 -23 28 -41 4 -32 -48
-191 -58 -179 -6 7 -22 50 -78 200 -2 7 7 17 19 22 18 7 0 10 -70 10 -90 1
-92 0 -73 -16 12 -10 48 -85 80 -168 52 -130 63 -150 83 -153 22 -3 27 5 53
80 67 193 87 237 108 244 39 12 48 -18 48 -158 0 -118 -2 -129 -22 -148 l-22
-20 93 0 c59 0 90 4 86 10 -3 6 -12 10 -19 10 -21 0 -26 34 -26 188 0 129 -2
142 -17 140 -10 -1 -67 -4 -128 -5z"/>
<path d="M2388 2663 c-47 -4 -47 -4 -27 -24 17 -17 19 -34 19 -149 0 -120 -2
-131 -22 -150 l-22 -20 90 0 c82 1 87 2 69 16 -18 13 -20 27 -20 138 0 109 2
127 19 145 14 15 29 21 50 19 l31 -3 3 -139 c2 -119 0 -141 -14 -157 -17 -18
-14 -19 72 -19 86 0 88 1 67 18 -20 16 -22 27 -25 155 -3 132 -4 140 -27 158
-36 29 -111 26 -150 -7 l-31 -26 0 26 c0 19 -5 25 -17 24 -10 -1 -39 -3 -65
-5z"/>
<path d="M3339 2647 c-48 -32 -71 -85 -71 -163 1 -71 19 -113 63 -146 61 -45
161 -28 199 34 28 47 25 54 -11 24 -30 -25 -70 -33 -104 -20 -25 10 -45 58
-45 109 l0 45 91 0 92 0 -6 43 c-9 63 -51 97 -121 97 -38 0 -62 -6 -87 -23z
m117 -22 c7 -19 14 -46 14 -60 0 -23 -3 -25 -50 -25 -49 0 -50 1 -50 31 0 32
15 69 34 81 22 15 37 7 52 -27z"/>
<path d="M1740 1890 c0 -33 4 -60 10 -60 6 0 10 9 10 19 0 15 8 21 33 23 25 2
33 8 35 26 5 33 -15 52 -54 52 l-34 0 0 -60z m70 21 c0 -17 -18 -31 -41 -31
-5 0 -9 11 -9 25 0 20 5 25 25 25 18 0 25 -5 25 -19z"/>
<path d="M1950 1890 c0 -33 4 -60 10 -60 6 0 10 9 10 20 0 27 25 25 44 -2 9
-12 19 -19 22 -15 4 4 1 13 -5 21 -8 10 -9 16 -1 21 5 3 10 19 10 35 0 30 -14
40 -61 40 -29 0 -29 0 -29 -60z m74 25 c3 -8 -3 -19 -14 -25 -30 -16 -40 -12
-40 15 0 20 5 25 24 25 13 0 26 -7 30 -15z"/>
<path d="M2177 1932 c-22 -24 -21 -65 1 -85 40 -36 102 -9 102 45 0 51 -69 78
-103 40z m77 -24 c16 -26 -4 -53 -40 -53 -25 0 -30 4 -32 29 -6 46 47 63 72
24z"/>
<path d="M2400 1890 c0 -33 4 -60 10 -60 6 0 10 11 10 25 0 20 5 25 25 25 14
0 25 5 25 10 0 6 -11 10 -25 10 -16 0 -25 6 -25 15 0 10 10 15 30 15 17 0 30
5 30 10 0 6 -18 10 -40 10 l-40 0 0 -60z"/>
<path d="M2600 1930 c-11 -11 -20 -29 -20 -40 0 -28 35 -60 65 -60 30 0 65 32
65 60 0 28 -35 60 -65 60 -14 0 -34 -9 -45 -20z m80 -20 c8 -14 8 -26 0 -40
-19 -35 -80 -20 -80 20 0 40 61 55 80 20z"/>
<path d="M2820 1890 l0 -60 41 0 c24 0 38 4 34 10 -3 6 -17 10 -31 10 -22 0
-24 4 -24 50 0 28 -4 50 -10 50 -6 0 -10 -27 -10 -60z"/>
<path d="M3010 1890 c0 -33 4 -60 10 -60 6 0 10 27 10 60 0 33 -4 60 -10 60
-6 0 -10 -27 -10 -60z"/>
<path d="M3174 1942 c-37 -24 -36 -91 1 -106 44 -17 95 12 95 54 0 42 -62 75
-96 52z m70 -34 c15 -24 -3 -52 -37 -56 -33 -4 -53 28 -37 59 14 25 58 23 74
-3z"/>
</g>
</svg>
